<svg xmlns="http://www.w3.org/2000/svg" width="256" height="256" fill="none" viewBox="0 0 256 256" id="codepen">
  <rect width="224" height="224" x="16" y="16" fill="#EEE" rx="70"></rect>
  <path fill="#000" d="M127.777 61.3395L127.893 61.3369H128.107L128.252 61.3411L128.426 61.3505C129.544 61.4244 130.581 61.79 131.464 62.3713L191.741 102.373C192.379 102.779 192.939 103.297 193.394 103.901L193.51 104.061L193.591 104.178C194.285 105.207 194.66 106.418 194.666 107.659V148.217C194.684 149.413 194.36 150.589 193.732 151.607L193.663 151.716L193.591 151.825C193.145 152.49 192.577 153.063 191.916 153.515L131.562 193.567C130.635 194.202 129.556 194.577 128.435 194.653L128.168 194.666L127.999 194.668H127.89L127.726 194.662L127.556 194.653C126.444 194.576 125.373 194.205 124.452 193.577L64.2749 153.641C63.7284 153.297 63.2384 152.87 62.8223 152.375L62.8082 152.358C62.6746 152.198 62.5489 152.032 62.4317 151.86L62.4077 151.825C61.6933 150.767 61.3183 149.516 61.3327 148.239V107.787C61.3169 106.711 61.5775 105.65 62.0895 104.704L62.2186 104.478L62.2707 104.39C62.7762 103.571 63.4616 102.878 64.2749 102.363L124.441 62.4343C125.307 61.8411 126.308 61.4747 127.353 61.3687L127.591 61.3489L127.777 61.3395ZM97.8213 135.607L79.002 148.267L121.689 176.593V151.663L97.8213 135.607ZM158.177 135.606L134.309 151.663V176.593L176.995 148.266L158.177 135.606ZM128 115.305L109.129 128L127.999 140.693L146.87 128L127.999 115.305H128ZM73.9478 119.546V136.457L86.5166 128.001L73.9478 119.546ZM182.04 119.553L169.482 128.001L182.04 136.45V119.553ZM121.689 79.4015L78.9983 107.733L97.8228 120.395L121.689 104.34V79.4015ZM134.309 79.4083V104.34L158.175 120.395L176.998 107.735L134.309 79.4083Z"></path>
</svg>