<svg xmlns="http://www.w3.org/2000/svg" width="256" height="256" fill="none" viewBox="0 0 256 256" id="github">
  <rect width="224" height="224" x="16" y="16" fill="#EEE" rx="70"></rect>
  <path fill="#1F2328" fill-rule="evenodd" d="M107.921 181.186C107.942 183.584 107.958 185.429 107.958 186.333C107.958 193.896 108.099 194.666 128.769 194.666C149.504 194.666 149.599 193.88 149.599 186.333C149.599 185.415 149.609 183.808 149.624 181.659C149.652 177.327 149.696 170.796 149.696 163.286C149.696 155.451 147.012 150.34 143.999 147.734C162.701 145.654 182.347 138.552 182.347 106.295C182.347 97.1262 179.089 89.634 173.704 83.7526C174.576 81.638 177.452 73.0954 172.881 61.5281C172.881 61.5281 165.838 59.2711 149.809 70.1363C143.097 68.2749 135.907 67.3426 128.77 67.3104C121.633 67.3426 114.448 68.2756 107.749 70.1363C91.7 59.2704 84.6474 61.5274 84.6474 61.5274C80.0874 73.096 82.9618 81.6373 83.8338 83.7526C78.4616 89.634 75.181 97.1262 75.181 106.295C75.181 138.475 94.7903 145.677 113.444 147.8C111.042 149.897 108.866 153.603 108.112 159.03C103.32 161.176 91.1633 164.888 83.6724 152.049C83.6724 152.049 79.2318 143.986 70.7988 143.395C70.7988 143.395 62.6046 143.287 70.224 148.499C70.224 148.499 75.7288 151.081 79.5494 160.788C79.5494 160.788 84.4794 175.777 107.844 170.698C107.863 174.544 107.895 178.269 107.921 181.181V181.181L107.921 181.186ZM74.8024 146.594C75.4002 146.88 76.0569 146.755 76.242 146.338C76.4526 145.919 76.1048 145.345 75.4946 145.071C74.8871 144.783 74.229 144.903 74.0479 145.333C73.8511 145.751 74.1929 146.32 74.8024 146.594ZM78.6578 149.636C79.1892 150.223 79.9726 150.395 80.3728 150.024C80.7908 149.649 80.6845 148.871 80.1347 148.279C79.5842 147.693 78.8251 147.519 78.4117 147.891C78.0056 148.267 78.1086 149.051 78.6578 149.636ZM81.3308 154.016C81.8511 154.762 82.6922 155.098 83.2073 154.74C83.7328 154.374 83.7321 153.479 83.2191 152.72C82.6922 151.978 81.8635 151.656 81.3419 152.014C80.8164 152.373 80.8164 153.269 81.3308 154.016ZM85.8409 159.881C86.5587 160.573 87.5396 160.71 87.9995 160.202C88.4909 159.7 88.2679 158.732 87.5396 158.057C86.8165 157.369 85.8304 157.226 85.3646 157.735C84.9027 158.243 85.1067 159.204 85.8409 159.881ZM92.0956 162.724C93.0463 163.003 93.9911 162.704 94.1945 162.046C94.392 161.377 93.7687 160.612 92.82 160.326C91.8621 160.027 90.9133 160.338 90.7158 161.001C90.5242 161.665 91.1456 162.436 92.0956 162.724ZM99.4625 164.108C100.461 164.095 101.267 163.521 101.244 162.829C101.244 162.14 100.426 161.583 99.4277 161.603C98.4232 161.62 97.6345 162.189 97.6345 162.888C97.6457 163.57 98.4586 164.13 99.4625 164.108ZM106.603 164.118C107.595 163.933 108.289 163.239 108.169 162.563C108.042 161.876 107.154 161.47 106.161 161.642C105.188 161.821 104.481 162.516 104.602 163.208C104.726 163.878 105.629 164.296 106.603 164.118Z" clip-rule="evenodd"></path>
</svg>