<svg xmlns="http://www.w3.org/2000/svg" width="256" height="256" fill="none" viewBox="0 0 256 256" id="instagram">
  <rect width="224" height="224" x="16" y="16" fill="#EEE" rx="70"></rect>
  <rect width="133.333" height="133.333" x="61.334" y="61.333" fill="url(#paint0_radial_533_1840)" rx="4.3"></rect>
  <rect width="133.333" height="133.333" x="61.334" y="61.333" fill="url(#paint1_radial_533_1840)" rx="4.3"></rect>
  <path fill="#fff" d="M161.333 101.808C161.333 105.753 158.135 108.951 154.19 108.951C150.245 108.951 147.048 105.753 147.048 101.808C147.048 97.8636 150.245 94.6656 154.19 94.6656C158.135 94.6656 161.333 97.8636 161.333 101.808Z"></path>
  <path fill="#fff" fill-rule="evenodd" d="M128 151.808C141.15 151.808 151.809 141.149 151.809 127.999C151.809 114.849 141.15 104.189 128 104.189C114.85 104.189 104.19 114.849 104.19 127.999C104.19 141.149 114.85 151.808 128 151.808ZM128 142.285C135.89 142.285 142.286 135.889 142.286 127.999C142.286 120.109 135.89 113.713 128 113.713C120.11 113.713 113.714 120.109 113.714 127.999C113.714 135.889 120.11 142.285 128 142.285Z" clip-rule="evenodd"></path>
  <path fill="#fff" fill-rule="evenodd" d="M80.3809 126.094C80.3809 110.093 80.3809 102.092 83.495 95.9802C86.2342 90.6041 90.6051 86.2332 95.9811 83.494C102.093 80.3799 110.094 80.3799 126.095 80.3799H129.905C145.906 80.3799 153.907 80.3799 160.019 83.494C165.395 86.2332 169.766 90.6041 172.505 95.9802C175.619 102.092 175.619 110.093 175.619 126.094V129.904C175.619 145.905 175.619 153.906 172.505 160.018C169.766 165.394 165.395 169.765 160.019 172.504C153.907 175.618 145.906 175.618 129.905 175.618H126.095C110.094 175.618 102.093 175.618 95.9811 172.504C90.6051 169.765 86.2342 165.394 83.495 160.018C80.3809 153.906 80.3809 145.905 80.3809 129.904V126.094ZM126.095 89.9037H129.905C138.063 89.9037 143.608 89.9111 147.895 90.2613C152.07 90.6025 154.205 91.2208 155.695 91.9798C159.279 93.8059 162.193 96.7198 164.019 100.304C164.778 101.793 165.396 103.929 165.738 108.104C166.088 112.391 166.095 117.936 166.095 126.094V129.904C166.095 138.062 166.088 143.607 165.738 147.894C165.396 152.069 164.778 154.204 164.019 155.694C162.193 159.278 159.279 162.192 155.695 164.018C154.205 164.777 152.07 165.395 147.895 165.737C143.608 166.087 138.063 166.094 129.905 166.094H126.095C117.937 166.094 112.392 166.087 108.105 165.737C103.93 165.395 101.794 164.777 100.305 164.018C96.7208 162.192 93.8069 159.278 91.9807 155.694C91.2218 154.204 90.6034 152.069 90.2623 147.894C89.9121 143.607 89.9047 138.062 89.9047 129.904V126.094C89.9047 117.936 89.9121 112.391 90.2623 108.104C90.6034 103.929 91.2218 101.793 91.9807 100.304C93.8069 96.7198 96.7208 93.8059 100.305 91.9798C101.794 91.2208 103.93 90.6025 108.105 90.2613C112.392 89.9111 117.937 89.9037 126.095 89.9037Z" clip-rule="evenodd"></path>
  <defs>
    <radialGradient id="paint0_radial_533_1840" cx="0" cy="0" r="1" gradientTransform="matrix(0 -132.143 122.904 0 96.75 204.936)" gradientUnits="userSpaceOnUse">
      <stop stop-color="#FD5"></stop>
      <stop offset=".1" stop-color="#FD5"></stop>
      <stop offset=".5" stop-color="#FF543E"></stop>
      <stop offset="1" stop-color="#C837AB"></stop>
    </radialGradient>
    <radialGradient id="paint1_radial_533_1840" cx="0" cy="0" r="1" gradientTransform="rotate(78.681 -23.773 59.26)scale(59.0685 243.483)" gradientUnits="userSpaceOnUse">
      <stop stop-color="#3771C8"></stop>
      <stop offset=".128" stop-color="#3771C8"></stop>
      <stop offset="1" stop-color="#60F" stop-opacity="0"></stop>
    </radialGradient>
  </defs>
</svg>