<svg xmlns="http://www.w3.org/2000/svg" width="256" height="256" fill="none" viewBox="0 0 256 256" id="whatsapp">
  <rect width="224" height="224" x="16" y="16" fill="#EEE" rx="70"></rect>
  <path fill="#25D366" d="M194.102 124.998C193.48 107.969 186.305 91.8396 174.073 79.9765C161.842 68.1134 145.5 61.434 128.461 61.333H128.139C116.665 61.3245 105.386 64.3036 95.4122 69.9771C85.4385 75.6506 77.1138 83.823 71.2571 93.6902C65.4004 103.558 62.2137 114.78 62.0104 126.252C61.8071 137.725 64.5942 149.053 70.0976 159.121L64.2539 194.09C64.2444 194.161 64.2502 194.234 64.2711 194.304C64.292 194.373 64.3274 194.437 64.3749 194.492C64.4225 194.546 64.4811 194.59 64.5469 194.62C64.6127 194.65 64.6841 194.666 64.7565 194.666H64.857L99.4435 186.973C108.38 191.263 118.166 193.489 128.079 193.487C128.709 193.487 129.339 193.487 129.969 193.487C138.689 193.238 147.273 191.265 155.226 187.681C163.179 184.097 170.344 178.973 176.306 172.605C182.269 166.238 186.912 158.753 189.966 150.581C193.02 142.41 194.426 133.715 194.102 124.998ZM129.64 181.993C129.118 181.993 128.595 181.993 128.079 181.993C119.318 182.005 110.683 179.908 102.901 175.882L101.132 174.957L77.677 180.499L82.0061 156.769L81.001 155.067C76.1998 146.882 73.6138 137.586 73.4976 128.097C73.3814 118.608 75.7389 109.252 80.3381 100.952C84.9373 92.6507 91.6193 85.6911 99.7263 80.7582C107.833 75.8252 117.085 73.0892 126.571 72.8194C127.098 72.8194 127.628 72.8194 128.159 72.8194C142.482 72.8619 156.214 78.5289 166.397 88.5995C176.581 98.6701 182.401 112.338 182.603 126.659C182.805 140.98 177.373 154.806 167.478 165.161C157.582 175.515 144.016 181.567 129.701 182.014L129.64 181.993Z"></path>
  <path fill="#25D366" d="M102.737 96.0382C103.483 95.7055 104.288 95.526 105.104 95.51L105.245 95.4899C106.351 95.5234 107.457 95.5569 108.422 95.624L108.429 95.6245C109.6 95.7115 110.937 95.8108 112.061 98.653C113.448 101.984 116.403 110.287 116.798 111.131C117.047 111.574 117.181 112.072 117.189 112.58C117.198 113.087 117.079 113.589 116.846 114.04C116.394 115.011 115.807 115.913 115.103 116.72C114.245 117.665 113.354 118.757 112.523 119.549C111.692 120.339 110.781 121.21 111.692 122.899C114.05 127.25 117.04 131.227 120.565 134.7C124.337 138.394 128.767 141.349 133.626 143.412C134.188 143.707 134.808 143.874 135.442 143.902C135.786 143.896 136.125 143.817 136.437 143.672C136.748 143.526 137.026 143.317 137.251 143.057C138.284 142.012 141.36 138.386 142.7 136.717C142.909 136.375 143.198 136.088 143.542 135.883C143.887 135.677 144.276 135.559 144.677 135.538C145.292 135.584 145.894 135.74 146.453 136C147.961 136.604 155.982 140.892 157.618 141.75C159.253 142.608 160.338 143.091 160.734 143.761C161.129 144.431 161.029 147.782 159.527 151.615C158.026 155.448 151.144 158.973 148.094 159.161C147.19 159.215 146.326 159.335 145.179 159.335C142.398 159.335 138.11 158.612 128.325 154.396C111.678 147.246 101.573 129.614 100.775 128.481L100.769 128.472C99.9478 127.306 94.2755 119.252 94.5294 111.111C94.7841 102.949 99.187 99.0618 100.762 97.4468C101.319 96.8499 101.991 96.3709 102.737 96.0382Z"></path>
</svg>